<mxfile host="app.diagrams.net" agent="Mozilla/5.0 (Windows NT 10.0; Win64; x64) AppleWebKit/537.36 (KHTML, like Gecko) Chrome/138.0.0.0 Safari/537.36" version="28.0.1">
  <diagram name="Page-1" id="qq9sx-u8qa_xeT4T1fkd">
    <mxGraphModel dx="1713" dy="1063" grid="1" gridSize="10" guides="1" tooltips="1" connect="1" arrows="1" fold="1" page="1" pageScale="1" pageWidth="850" pageHeight="1100" math="0" shadow="0">
      <root>
        <mxCell id="0" />
        <mxCell id="1" parent="0" />
        <mxCell id="FoH2gdAt09zRC_ZvA1Tf-1" value="Khách hàng tiềm năng" style="shape=umlActor;verticalLabelPosition=bottom;verticalAlign=top;html=1;outlineConnect=0;" vertex="1" parent="1">
          <mxGeometry x="1003" y="440" width="30" height="60" as="geometry" />
        </mxCell>
        <mxCell id="FoH2gdAt09zRC_ZvA1Tf-3" value="Xem trang chủ" style="strokeWidth=2;html=1;shape=mxgraph.flowchart.start_1;whiteSpace=wrap;" vertex="1" parent="1">
          <mxGeometry x="1158" y="230" width="100" height="60" as="geometry" />
        </mxCell>
        <mxCell id="FoH2gdAt09zRC_ZvA1Tf-4" value="Xem sản phẩm" style="strokeWidth=2;html=1;shape=mxgraph.flowchart.start_1;whiteSpace=wrap;" vertex="1" parent="1">
          <mxGeometry x="1278" y="270" width="100" height="60" as="geometry" />
        </mxCell>
        <mxCell id="FoH2gdAt09zRC_ZvA1Tf-5" value="Tìm kiếm" style="strokeWidth=2;html=1;shape=mxgraph.flowchart.start_1;whiteSpace=wrap;" vertex="1" parent="1">
          <mxGeometry x="1338" y="350" width="100" height="60" as="geometry" />
        </mxCell>
        <mxCell id="FoH2gdAt09zRC_ZvA1Tf-6" value="Xem chi tiết sản phẩm" style="strokeWidth=2;html=1;shape=mxgraph.flowchart.start_1;whiteSpace=wrap;" vertex="1" parent="1">
          <mxGeometry x="1378" y="440" width="140" height="60" as="geometry" />
        </mxCell>
        <mxCell id="FoH2gdAt09zRC_ZvA1Tf-7" value="Xem khuyến mãi" style="strokeWidth=2;html=1;shape=mxgraph.flowchart.start_1;whiteSpace=wrap;" vertex="1" parent="1">
          <mxGeometry x="1338" y="520" width="110" height="60" as="geometry" />
        </mxCell>
        <mxCell id="FoH2gdAt09zRC_ZvA1Tf-8" value="Quản lý giỏ hàng" style="strokeWidth=2;html=1;shape=mxgraph.flowchart.start_1;whiteSpace=wrap;" vertex="1" parent="1">
          <mxGeometry x="1218" y="670" width="120" height="60" as="geometry" />
        </mxCell>
        <mxCell id="FoH2gdAt09zRC_ZvA1Tf-9" value="Xem so sánh" style="strokeWidth=2;html=1;shape=mxgraph.flowchart.start_1;whiteSpace=wrap;" vertex="1" parent="1">
          <mxGeometry x="1310" y="600" width="100" height="60" as="geometry" />
        </mxCell>
        <mxCell id="FoH2gdAt09zRC_ZvA1Tf-10" value="Chat" style="strokeWidth=2;html=1;shape=mxgraph.flowchart.start_1;whiteSpace=wrap;" vertex="1" parent="1">
          <mxGeometry x="1110" y="720" width="100" height="60" as="geometry" />
        </mxCell>
        <mxCell id="FoH2gdAt09zRC_ZvA1Tf-11" value="Đăng ký thành viên" style="strokeWidth=2;html=1;shape=mxgraph.flowchart.start_1;whiteSpace=wrap;" vertex="1" parent="1">
          <mxGeometry x="960" y="640" width="140" height="60" as="geometry" />
        </mxCell>
        <mxCell id="FoH2gdAt09zRC_ZvA1Tf-13" value="" style="endArrow=none;html=1;rounded=0;" edge="1" parent="1">
          <mxGeometry width="50" height="50" relative="1" as="geometry">
            <mxPoint x="1050" y="440" as="sourcePoint" />
            <mxPoint x="1190" y="300" as="targetPoint" />
          </mxGeometry>
        </mxCell>
        <mxCell id="FoH2gdAt09zRC_ZvA1Tf-14" value="" style="endArrow=none;html=1;rounded=0;" edge="1" parent="1">
          <mxGeometry width="50" height="50" relative="1" as="geometry">
            <mxPoint x="1080" y="460" as="sourcePoint" />
            <mxPoint x="1280" y="330" as="targetPoint" />
          </mxGeometry>
        </mxCell>
        <mxCell id="FoH2gdAt09zRC_ZvA1Tf-15" value="" style="endArrow=none;html=1;rounded=0;" edge="1" parent="1">
          <mxGeometry width="50" height="50" relative="1" as="geometry">
            <mxPoint x="1090" y="490" as="sourcePoint" />
            <mxPoint x="1330" y="400" as="targetPoint" />
          </mxGeometry>
        </mxCell>
        <mxCell id="FoH2gdAt09zRC_ZvA1Tf-17" value="" style="endArrow=none;html=1;rounded=0;" edge="1" parent="1">
          <mxGeometry width="50" height="50" relative="1" as="geometry">
            <mxPoint x="1110" y="510" as="sourcePoint" />
            <mxPoint x="1370" y="480" as="targetPoint" />
          </mxGeometry>
        </mxCell>
        <mxCell id="FoH2gdAt09zRC_ZvA1Tf-18" value="" style="endArrow=none;html=1;rounded=0;" edge="1" parent="1">
          <mxGeometry width="50" height="50" relative="1" as="geometry">
            <mxPoint x="1120" y="540" as="sourcePoint" />
            <mxPoint x="1330" y="550" as="targetPoint" />
          </mxGeometry>
        </mxCell>
        <mxCell id="FoH2gdAt09zRC_ZvA1Tf-19" value="" style="endArrow=none;html=1;rounded=0;" edge="1" parent="1">
          <mxGeometry width="50" height="50" relative="1" as="geometry">
            <mxPoint x="1080" y="560" as="sourcePoint" />
            <mxPoint x="1300" y="620" as="targetPoint" />
          </mxGeometry>
        </mxCell>
        <mxCell id="FoH2gdAt09zRC_ZvA1Tf-20" value="" style="endArrow=none;html=1;rounded=0;" edge="1" parent="1">
          <mxGeometry width="50" height="50" relative="1" as="geometry">
            <mxPoint x="1070" y="570" as="sourcePoint" />
            <mxPoint x="1250" y="670" as="targetPoint" />
          </mxGeometry>
        </mxCell>
        <mxCell id="FoH2gdAt09zRC_ZvA1Tf-22" value="" style="endArrow=none;html=1;rounded=0;" edge="1" parent="1">
          <mxGeometry width="50" height="50" relative="1" as="geometry">
            <mxPoint x="1050" y="570" as="sourcePoint" />
            <mxPoint x="1150" y="710" as="targetPoint" />
          </mxGeometry>
        </mxCell>
        <mxCell id="FoH2gdAt09zRC_ZvA1Tf-23" value="" style="endArrow=none;html=1;rounded=0;" edge="1" parent="1">
          <mxGeometry width="50" height="50" relative="1" as="geometry">
            <mxPoint x="1030" y="570" as="sourcePoint" />
            <mxPoint x="1030" y="630" as="targetPoint" />
          </mxGeometry>
        </mxCell>
        <mxCell id="FoH2gdAt09zRC_ZvA1Tf-24" value="Xem chung loại" style="strokeWidth=2;html=1;shape=mxgraph.flowchart.start_1;whiteSpace=wrap;" vertex="1" parent="1">
          <mxGeometry x="1460" y="160" width="100" height="60" as="geometry" />
        </mxCell>
        <mxCell id="FoH2gdAt09zRC_ZvA1Tf-25" value="Xem theo nha sản xuất" style="strokeWidth=2;html=1;shape=mxgraph.flowchart.start_1;whiteSpace=wrap;" vertex="1" parent="1">
          <mxGeometry x="1490" y="290" width="160" height="60" as="geometry" />
        </mxCell>
        <mxCell id="FoH2gdAt09zRC_ZvA1Tf-26" value="Mua hàng" style="strokeWidth=2;html=1;shape=mxgraph.flowchart.start_1;whiteSpace=wrap;" vertex="1" parent="1">
          <mxGeometry x="1438" y="690" width="100" height="60" as="geometry" />
        </mxCell>
        <mxCell id="FoH2gdAt09zRC_ZvA1Tf-27" value="&amp;lt;&amp;lt;include&amp;gt;&amp;gt;" style="endArrow=open;endSize=12;dashed=1;html=1;rounded=0;exitX=1;exitY=0.5;exitDx=0;exitDy=0;exitPerimeter=0;entryX=0;entryY=0.5;entryDx=0;entryDy=0;entryPerimeter=0;" edge="1" parent="1" source="FoH2gdAt09zRC_ZvA1Tf-4" target="FoH2gdAt09zRC_ZvA1Tf-24">
          <mxGeometry width="160" relative="1" as="geometry">
            <mxPoint x="1275" y="170" as="sourcePoint" />
            <mxPoint x="1435" y="170" as="targetPoint" />
          </mxGeometry>
        </mxCell>
        <mxCell id="FoH2gdAt09zRC_ZvA1Tf-28" value="&amp;lt;&amp;lt;include&amp;gt;&amp;gt;" style="endArrow=open;endSize=12;dashed=1;html=1;rounded=0;entryX=0;entryY=0.5;entryDx=0;entryDy=0;entryPerimeter=0;" edge="1" parent="1" target="FoH2gdAt09zRC_ZvA1Tf-25">
          <mxGeometry width="160" relative="1" as="geometry">
            <mxPoint x="1380" y="300" as="sourcePoint" />
            <mxPoint x="1532" y="300" as="targetPoint" />
          </mxGeometry>
        </mxCell>
        <mxCell id="FoH2gdAt09zRC_ZvA1Tf-29" value="&amp;lt;&amp;lt;include&amp;gt;&amp;gt;" style="endArrow=open;endSize=12;dashed=1;html=1;rounded=0;exitX=1;exitY=0.5;exitDx=0;exitDy=0;exitPerimeter=0;entryX=0;entryY=0.5;entryDx=0;entryDy=0;entryPerimeter=0;" edge="1" parent="1" source="FoH2gdAt09zRC_ZvA1Tf-8" target="FoH2gdAt09zRC_ZvA1Tf-26">
          <mxGeometry width="160" relative="1" as="geometry">
            <mxPoint x="1410" y="950" as="sourcePoint" />
            <mxPoint x="1492" y="840" as="targetPoint" />
          </mxGeometry>
        </mxCell>
        <mxCell id="FoH2gdAt09zRC_ZvA1Tf-30" value="Khách hàng" style="shape=umlActor;verticalLabelPosition=bottom;verticalAlign=top;html=1;" vertex="1" parent="1">
          <mxGeometry x="1850" y="440" width="30" height="60" as="geometry" />
        </mxCell>
        <mxCell id="FoH2gdAt09zRC_ZvA1Tf-33" value="Đăng nhập" style="strokeWidth=2;html=1;shape=mxgraph.flowchart.start_1;whiteSpace=wrap;" vertex="1" parent="1">
          <mxGeometry x="2010" y="370" width="100" height="60" as="geometry" />
        </mxCell>
        <mxCell id="FoH2gdAt09zRC_ZvA1Tf-34" value="Quản lý đơn hàng" style="strokeWidth=2;html=1;shape=mxgraph.flowchart.start_1;whiteSpace=wrap;" vertex="1" parent="1">
          <mxGeometry x="1995" y="520" width="130" height="60" as="geometry" />
        </mxCell>
        <mxCell id="FoH2gdAt09zRC_ZvA1Tf-35" value="Thanh toán" style="strokeWidth=2;html=1;shape=mxgraph.flowchart.start_1;whiteSpace=wrap;" vertex="1" parent="1">
          <mxGeometry x="2260" y="520" width="100" height="60" as="geometry" />
        </mxCell>
        <mxCell id="FoH2gdAt09zRC_ZvA1Tf-36" value="" style="endArrow=none;html=1;rounded=0;" edge="1" parent="1" target="FoH2gdAt09zRC_ZvA1Tf-33">
          <mxGeometry width="50" height="50" relative="1" as="geometry">
            <mxPoint x="1900" y="460" as="sourcePoint" />
            <mxPoint x="2020" y="360" as="targetPoint" />
          </mxGeometry>
        </mxCell>
        <mxCell id="FoH2gdAt09zRC_ZvA1Tf-37" value="" style="endArrow=none;html=1;rounded=0;" edge="1" parent="1">
          <mxGeometry width="50" height="50" relative="1" as="geometry">
            <mxPoint x="1900" y="500" as="sourcePoint" />
            <mxPoint x="1990" y="540" as="targetPoint" />
          </mxGeometry>
        </mxCell>
        <mxCell id="FoH2gdAt09zRC_ZvA1Tf-38" value="&amp;lt;&amp;lt;include&amp;gt;&amp;gt;" style="endArrow=open;endSize=12;dashed=1;html=1;rounded=0;exitX=1;exitY=0.5;exitDx=0;exitDy=0;exitPerimeter=0;entryX=0;entryY=0.5;entryDx=0;entryDy=0;entryPerimeter=0;" edge="1" parent="1" source="FoH2gdAt09zRC_ZvA1Tf-34" target="FoH2gdAt09zRC_ZvA1Tf-35">
          <mxGeometry width="160" relative="1" as="geometry">
            <mxPoint x="2160" y="670" as="sourcePoint" />
            <mxPoint x="2260" y="690" as="targetPoint" />
          </mxGeometry>
        </mxCell>
        <mxCell id="FoH2gdAt09zRC_ZvA1Tf-40" value="Khách hàng tiềm năng" style="shape=umlActor;verticalLabelPosition=bottom;verticalAlign=top;html=1;outlineConnect=0;" vertex="1" parent="1">
          <mxGeometry x="2633" y="310" width="30" height="60" as="geometry" />
        </mxCell>
        <mxCell id="FoH2gdAt09zRC_ZvA1Tf-41" value="Xem trang chủ" style="strokeWidth=2;html=1;shape=mxgraph.flowchart.start_1;whiteSpace=wrap;" vertex="1" parent="1">
          <mxGeometry x="2788" y="100" width="100" height="60" as="geometry" />
        </mxCell>
        <mxCell id="FoH2gdAt09zRC_ZvA1Tf-42" value="Xem sản phẩm" style="strokeWidth=2;html=1;shape=mxgraph.flowchart.start_1;whiteSpace=wrap;" vertex="1" parent="1">
          <mxGeometry x="2908" y="140" width="100" height="60" as="geometry" />
        </mxCell>
        <mxCell id="FoH2gdAt09zRC_ZvA1Tf-43" value="Tìm kiếm" style="strokeWidth=2;html=1;shape=mxgraph.flowchart.start_1;whiteSpace=wrap;" vertex="1" parent="1">
          <mxGeometry x="2968" y="220" width="100" height="60" as="geometry" />
        </mxCell>
        <mxCell id="FoH2gdAt09zRC_ZvA1Tf-44" value="Xem chi tiết sản phẩm" style="strokeWidth=2;html=1;shape=mxgraph.flowchart.start_1;whiteSpace=wrap;" vertex="1" parent="1">
          <mxGeometry x="3008" y="310" width="140" height="60" as="geometry" />
        </mxCell>
        <mxCell id="FoH2gdAt09zRC_ZvA1Tf-45" value="Xem khuyến mãi" style="strokeWidth=2;html=1;shape=mxgraph.flowchart.start_1;whiteSpace=wrap;" vertex="1" parent="1">
          <mxGeometry x="2968" y="390" width="110" height="60" as="geometry" />
        </mxCell>
        <mxCell id="FoH2gdAt09zRC_ZvA1Tf-46" value="Quản lý giỏ hàng" style="strokeWidth=2;html=1;shape=mxgraph.flowchart.start_1;whiteSpace=wrap;" vertex="1" parent="1">
          <mxGeometry x="2848" y="540" width="120" height="60" as="geometry" />
        </mxCell>
        <mxCell id="FoH2gdAt09zRC_ZvA1Tf-47" value="Xem so sánh" style="strokeWidth=2;html=1;shape=mxgraph.flowchart.start_1;whiteSpace=wrap;" vertex="1" parent="1">
          <mxGeometry x="2940" y="470" width="100" height="60" as="geometry" />
        </mxCell>
        <mxCell id="FoH2gdAt09zRC_ZvA1Tf-48" value="Chat" style="strokeWidth=2;html=1;shape=mxgraph.flowchart.start_1;whiteSpace=wrap;" vertex="1" parent="1">
          <mxGeometry x="2840" y="670" width="100" height="60" as="geometry" />
        </mxCell>
        <mxCell id="FoH2gdAt09zRC_ZvA1Tf-49" value="Đăng ký thành viên" style="strokeWidth=2;html=1;shape=mxgraph.flowchart.start_1;whiteSpace=wrap;" vertex="1" parent="1">
          <mxGeometry x="2590" y="510" width="140" height="60" as="geometry" />
        </mxCell>
        <mxCell id="FoH2gdAt09zRC_ZvA1Tf-50" value="" style="endArrow=none;html=1;rounded=0;" edge="1" parent="1">
          <mxGeometry width="50" height="50" relative="1" as="geometry">
            <mxPoint x="2680" y="310" as="sourcePoint" />
            <mxPoint x="2820" y="170" as="targetPoint" />
          </mxGeometry>
        </mxCell>
        <mxCell id="FoH2gdAt09zRC_ZvA1Tf-51" value="" style="endArrow=none;html=1;rounded=0;" edge="1" parent="1">
          <mxGeometry width="50" height="50" relative="1" as="geometry">
            <mxPoint x="2710" y="330" as="sourcePoint" />
            <mxPoint x="2910" y="200" as="targetPoint" />
          </mxGeometry>
        </mxCell>
        <mxCell id="FoH2gdAt09zRC_ZvA1Tf-52" value="" style="endArrow=none;html=1;rounded=0;" edge="1" parent="1">
          <mxGeometry width="50" height="50" relative="1" as="geometry">
            <mxPoint x="2720" y="360" as="sourcePoint" />
            <mxPoint x="2960" y="270" as="targetPoint" />
          </mxGeometry>
        </mxCell>
        <mxCell id="FoH2gdAt09zRC_ZvA1Tf-53" value="" style="endArrow=none;html=1;rounded=0;" edge="1" parent="1">
          <mxGeometry width="50" height="50" relative="1" as="geometry">
            <mxPoint x="2740" y="380" as="sourcePoint" />
            <mxPoint x="3000" y="350" as="targetPoint" />
          </mxGeometry>
        </mxCell>
        <mxCell id="FoH2gdAt09zRC_ZvA1Tf-54" value="" style="endArrow=none;html=1;rounded=0;" edge="1" parent="1">
          <mxGeometry width="50" height="50" relative="1" as="geometry">
            <mxPoint x="2750" y="410" as="sourcePoint" />
            <mxPoint x="2960" y="420" as="targetPoint" />
          </mxGeometry>
        </mxCell>
        <mxCell id="FoH2gdAt09zRC_ZvA1Tf-55" value="" style="endArrow=none;html=1;rounded=0;" edge="1" parent="1">
          <mxGeometry width="50" height="50" relative="1" as="geometry">
            <mxPoint x="2710" y="430" as="sourcePoint" />
            <mxPoint x="2930" y="490" as="targetPoint" />
          </mxGeometry>
        </mxCell>
        <mxCell id="FoH2gdAt09zRC_ZvA1Tf-56" value="" style="endArrow=none;html=1;rounded=0;" edge="1" parent="1">
          <mxGeometry width="50" height="50" relative="1" as="geometry">
            <mxPoint x="2700" y="440" as="sourcePoint" />
            <mxPoint x="2880" y="540" as="targetPoint" />
          </mxGeometry>
        </mxCell>
        <mxCell id="FoH2gdAt09zRC_ZvA1Tf-57" value="" style="endArrow=none;html=1;rounded=0;" edge="1" parent="1">
          <mxGeometry width="50" height="50" relative="1" as="geometry">
            <mxPoint x="2680" y="440" as="sourcePoint" />
            <mxPoint x="2880" y="660" as="targetPoint" />
          </mxGeometry>
        </mxCell>
        <mxCell id="FoH2gdAt09zRC_ZvA1Tf-58" value="" style="endArrow=none;html=1;rounded=0;" edge="1" parent="1">
          <mxGeometry width="50" height="50" relative="1" as="geometry">
            <mxPoint x="2660" y="440" as="sourcePoint" />
            <mxPoint x="2660" y="500" as="targetPoint" />
          </mxGeometry>
        </mxCell>
        <mxCell id="FoH2gdAt09zRC_ZvA1Tf-59" value="Xem chung loại" style="strokeWidth=2;html=1;shape=mxgraph.flowchart.start_1;whiteSpace=wrap;" vertex="1" parent="1">
          <mxGeometry x="3090" y="30" width="100" height="60" as="geometry" />
        </mxCell>
        <mxCell id="FoH2gdAt09zRC_ZvA1Tf-60" value="Xem theo nha sản xuất" style="strokeWidth=2;html=1;shape=mxgraph.flowchart.start_1;whiteSpace=wrap;" vertex="1" parent="1">
          <mxGeometry x="3120" y="160" width="160" height="60" as="geometry" />
        </mxCell>
        <mxCell id="FoH2gdAt09zRC_ZvA1Tf-61" value="Mua hàng" style="strokeWidth=2;html=1;shape=mxgraph.flowchart.start_1;whiteSpace=wrap;" vertex="1" parent="1">
          <mxGeometry x="3068" y="560" width="100" height="60" as="geometry" />
        </mxCell>
        <mxCell id="FoH2gdAt09zRC_ZvA1Tf-62" value="&amp;lt;&amp;lt;include&amp;gt;&amp;gt;" style="endArrow=open;endSize=12;dashed=1;html=1;rounded=0;exitX=1;exitY=0.5;exitDx=0;exitDy=0;exitPerimeter=0;entryX=0;entryY=0.5;entryDx=0;entryDy=0;entryPerimeter=0;" edge="1" parent="1" source="FoH2gdAt09zRC_ZvA1Tf-42" target="FoH2gdAt09zRC_ZvA1Tf-59">
          <mxGeometry width="160" relative="1" as="geometry">
            <mxPoint x="2905" y="40" as="sourcePoint" />
            <mxPoint x="3065" y="40" as="targetPoint" />
          </mxGeometry>
        </mxCell>
        <mxCell id="FoH2gdAt09zRC_ZvA1Tf-63" value="&amp;lt;&amp;lt;include&amp;gt;&amp;gt;" style="endArrow=open;endSize=12;dashed=1;html=1;rounded=0;entryX=0;entryY=0.5;entryDx=0;entryDy=0;entryPerimeter=0;" edge="1" parent="1" target="FoH2gdAt09zRC_ZvA1Tf-60">
          <mxGeometry width="160" relative="1" as="geometry">
            <mxPoint x="3010" y="170" as="sourcePoint" />
            <mxPoint x="3162" y="170" as="targetPoint" />
          </mxGeometry>
        </mxCell>
        <mxCell id="FoH2gdAt09zRC_ZvA1Tf-64" value="&amp;lt;&amp;lt;include&amp;gt;&amp;gt;" style="endArrow=open;endSize=12;dashed=1;html=1;rounded=0;exitX=1;exitY=0.5;exitDx=0;exitDy=0;exitPerimeter=0;entryX=0;entryY=0.5;entryDx=0;entryDy=0;entryPerimeter=0;" edge="1" parent="1" source="FoH2gdAt09zRC_ZvA1Tf-46" target="FoH2gdAt09zRC_ZvA1Tf-61">
          <mxGeometry width="160" relative="1" as="geometry">
            <mxPoint x="3040" y="820" as="sourcePoint" />
            <mxPoint x="3122" y="710" as="targetPoint" />
          </mxGeometry>
        </mxCell>
        <mxCell id="FoH2gdAt09zRC_ZvA1Tf-65" value="Khách hàng" style="shape=umlActor;verticalLabelPosition=bottom;verticalAlign=top;html=1;" vertex="1" parent="1">
          <mxGeometry x="2590" y="850" width="30" height="60" as="geometry" />
        </mxCell>
        <mxCell id="FoH2gdAt09zRC_ZvA1Tf-66" value="Đăng nhập" style="strokeWidth=2;html=1;shape=mxgraph.flowchart.start_1;whiteSpace=wrap;" vertex="1" parent="1">
          <mxGeometry x="2750" y="780" width="100" height="60" as="geometry" />
        </mxCell>
        <mxCell id="FoH2gdAt09zRC_ZvA1Tf-67" value="Quản lý đơn hàng" style="strokeWidth=2;html=1;shape=mxgraph.flowchart.start_1;whiteSpace=wrap;" vertex="1" parent="1">
          <mxGeometry x="2735" y="930" width="130" height="60" as="geometry" />
        </mxCell>
        <mxCell id="FoH2gdAt09zRC_ZvA1Tf-68" value="Thanh toán" style="strokeWidth=2;html=1;shape=mxgraph.flowchart.start_1;whiteSpace=wrap;" vertex="1" parent="1">
          <mxGeometry x="2670" y="1020" width="100" height="60" as="geometry" />
        </mxCell>
        <mxCell id="FoH2gdAt09zRC_ZvA1Tf-69" value="" style="endArrow=none;html=1;rounded=0;" edge="1" parent="1" target="FoH2gdAt09zRC_ZvA1Tf-66">
          <mxGeometry width="50" height="50" relative="1" as="geometry">
            <mxPoint x="2640" y="870" as="sourcePoint" />
            <mxPoint x="2760" y="770" as="targetPoint" />
          </mxGeometry>
        </mxCell>
        <mxCell id="FoH2gdAt09zRC_ZvA1Tf-70" value="" style="endArrow=none;html=1;rounded=0;" edge="1" parent="1">
          <mxGeometry width="50" height="50" relative="1" as="geometry">
            <mxPoint x="2640" y="910" as="sourcePoint" />
            <mxPoint x="2730" y="950" as="targetPoint" />
          </mxGeometry>
        </mxCell>
        <mxCell id="FoH2gdAt09zRC_ZvA1Tf-71" value="&amp;lt;&amp;lt;include&amp;gt;&amp;gt;" style="endArrow=open;endSize=12;dashed=1;html=1;rounded=0;exitX=0.5;exitY=1;exitDx=0;exitDy=0;exitPerimeter=0;entryX=0.5;entryY=0;entryDx=0;entryDy=0;entryPerimeter=0;" edge="1" parent="1" source="FoH2gdAt09zRC_ZvA1Tf-67" target="FoH2gdAt09zRC_ZvA1Tf-68">
          <mxGeometry width="160" relative="1" as="geometry">
            <mxPoint x="2900" y="1080" as="sourcePoint" />
            <mxPoint x="3000" y="1100" as="targetPoint" />
          </mxGeometry>
        </mxCell>
        <mxCell id="FoH2gdAt09zRC_ZvA1Tf-72" value="Người bán hàng" style="shape=umlActor;verticalLabelPosition=bottom;verticalAlign=top;html=1;" vertex="1" parent="1">
          <mxGeometry x="3320" y="740" width="30" height="60" as="geometry" />
        </mxCell>
        <mxCell id="FoH2gdAt09zRC_ZvA1Tf-73" value="Quản lý đơn hàng" style="strokeWidth=2;html=1;shape=mxgraph.flowchart.start_1;whiteSpace=wrap;" vertex="1" parent="1">
          <mxGeometry x="3100" y="850" width="140" height="60" as="geometry" />
        </mxCell>
        <mxCell id="FoH2gdAt09zRC_ZvA1Tf-74" value="" style="endArrow=none;html=1;rounded=0;" edge="1" parent="1">
          <mxGeometry width="50" height="50" relative="1" as="geometry">
            <mxPoint x="2960" y="710" as="sourcePoint" />
            <mxPoint x="3290" y="780" as="targetPoint" />
          </mxGeometry>
        </mxCell>
        <mxCell id="FoH2gdAt09zRC_ZvA1Tf-75" value="" style="endArrow=none;html=1;rounded=0;" edge="1" parent="1">
          <mxGeometry width="50" height="50" relative="1" as="geometry">
            <mxPoint x="3230" y="850" as="sourcePoint" />
            <mxPoint x="3280" y="820" as="targetPoint" />
          </mxGeometry>
        </mxCell>
        <mxCell id="FoH2gdAt09zRC_ZvA1Tf-76" value="" style="endArrow=none;html=1;rounded=0;" edge="1" parent="1">
          <mxGeometry width="50" height="50" relative="1" as="geometry">
            <mxPoint x="2860" y="810" as="sourcePoint" />
            <mxPoint x="3280" y="800" as="targetPoint" />
          </mxGeometry>
        </mxCell>
        <mxCell id="FoH2gdAt09zRC_ZvA1Tf-77" value="Đưa tiền" style="strokeWidth=2;html=1;shape=mxgraph.flowchart.start_1;whiteSpace=wrap;" vertex="1" parent="1">
          <mxGeometry x="3008" y="980" width="100" height="60" as="geometry" />
        </mxCell>
        <mxCell id="FoH2gdAt09zRC_ZvA1Tf-78" value="Theo dõi chuyến hàng" style="strokeWidth=2;html=1;shape=mxgraph.flowchart.start_1;whiteSpace=wrap;" vertex="1" parent="1">
          <mxGeometry x="3210" y="980" width="180" height="60" as="geometry" />
        </mxCell>
        <mxCell id="FoH2gdAt09zRC_ZvA1Tf-79" value="&amp;lt;&amp;lt;include&amp;gt;&amp;gt;" style="endArrow=open;endSize=12;dashed=1;html=1;rounded=0;exitX=0.5;exitY=1;exitDx=0;exitDy=0;exitPerimeter=0;entryX=0.5;entryY=0;entryDx=0;entryDy=0;entryPerimeter=0;" edge="1" parent="1" source="FoH2gdAt09zRC_ZvA1Tf-73" target="FoH2gdAt09zRC_ZvA1Tf-77">
          <mxGeometry width="160" relative="1" as="geometry">
            <mxPoint x="3500" y="880" as="sourcePoint" />
            <mxPoint x="3430" y="970" as="targetPoint" />
          </mxGeometry>
        </mxCell>
        <mxCell id="FoH2gdAt09zRC_ZvA1Tf-80" value="&amp;lt;&amp;lt;include&amp;gt;&amp;gt;" style="endArrow=open;endSize=12;dashed=1;html=1;rounded=0;exitX=0.5;exitY=1;exitDx=0;exitDy=0;exitPerimeter=0;entryX=0.5;entryY=0;entryDx=0;entryDy=0;entryPerimeter=0;" edge="1" parent="1" source="FoH2gdAt09zRC_ZvA1Tf-73" target="FoH2gdAt09zRC_ZvA1Tf-78">
          <mxGeometry width="160" relative="1" as="geometry">
            <mxPoint x="3530" y="860" as="sourcePoint" />
            <mxPoint x="3460" y="950" as="targetPoint" />
          </mxGeometry>
        </mxCell>
      </root>
    </mxGraphModel>
  </diagram>
</mxfile>
